===========Visit DUSTorrents.com for more Exclusives==============

Visit DusTorrents.com for more exclusives....

DusTorrents.com a Complete FreeLeech Site!! Registrations are absolutely FREE!!

Register by visiting..... [url]http://www.dustorrents.com/register.php[/url]

========================================================

[CENTER][FONT=Comic Sans MS][B][SIZE=5][COLOR="#FF0000"]Aap Ki Kasam (1974) 1/3 DvD RiP XviD 5.1 AC3 [Team DUS] 3rd Anniversary Release[/COLOR][/SIZE][/B][/FONT]

[img]http://img834.imageshack.us/img834/7674/dus5.png[/img]

[img]http://farm1.static.flickr.com/161/419147420_6bd023ce96.jpg[/img][/CENTER]

[CODE]
[B][FONT=Comic Sans MS][COLOR="#FF0000"]Source                           : DvD 9 @ DDR Thanks.
Ripper                           : I Proud To Be An Indian [Team DUS][/COLOR][/FONT][/B]
General
Complete name                    : D:\Download\Aap Ki Kasam (1974) DvD RiP XviD 5.1 AC3 [Team DUS] 3rd Anniversary Release\Aap Ki Kasam (1974) DvD RiP XviD 5.1 AC3 [Team DUS] 3rd Anniversary Release.avi
Format                           : AVI
Format/Info                      : Audio Video Interleave
File size                        : 1.45 GiB
Duration                         : 2h 32mn
Overall bit rate                 : 1 359 Kbps

Video
ID                               : 0
Format                           : MPEG-4 Visual
Format profile                   : Advanced Simple@L5
Format settings, BVOP            : 2
Format settings, QPel            : Yes
Format settings, GMC             : No warppoints
Format settings, Matrix          : Default (H.263)
Codec ID                         : XVID
Codec ID/Hint                    : XviD
Duration                         : 2h 32mn
Bit rate                         : 967 Kbps
Width                            : 656 pixels
Height                           : 480 pixels
Display aspect ratio             : 4:3
Frame rate                       : 23.976 fps
Color space                      : YUV
Chroma subsampling               : 4:2:0
Bit depth                        : 8 bits
Scan type                        : Progressive
Compression mode                 : Lossy
Bits/(Pixel*Frame)               : 0.128
Stream size                      : 1.03 GiB (71%)
Writing library                  : XviD 1.2.1 (UTC 2008-12-04)

Audio
ID                               : 1
Format                           : AC-3
Format/Info                      : Audio Coding 3
Mode extension                   : CM (complete main)
Codec ID                         : 2000
Duration                         : 2h 32mn
Bit rate mode                    : Constant
Bit rate                         : 384 Kbps
Channel(s)                       : 6 channels
Channel positions                : Front: L C R, Side: L R, LFE
Sampling rate                    : 48.0 KHz
Bit depth                        : 16 bits
Compression mode                 : Lossy
Stream size                      : 420 MiB (28%)
Alignment                        : Aligned on interleaves
Interleave, duration             : 64 ms (1.53 video frames)
Interleave, preload duration     : 192 ms
Title                            : VTS_01_1 T80 3_2ch 384Kbps DELAY 0ms[/CODE]

[center][img]http://img21.imageshack.us/img21/3431/5vh6rom324kkccccthg.gif[/img]
 
http://img842.imageshack.us/img842/8458/vlcsnap2011070516h39m20.png
 
http://img143.imageshack.us/img143/7498/vlcsnap2011070516h39m28.png
 
http://img808.imageshack.us/img808/9515/vlcsnap2011070516h40m08.png
 
http://img695.imageshack.us/img695/8553/vlcsnap2011070516h40m42.png
 
http://img594.imageshack.us/img594/2258/vlcsnap2011070516h42m44.png
 
http://img17.imageshack.us/img17/5253/vlcsnap2011070516h42m56.png
 
http://img819.imageshack.us/img819/5351/vlcsnap2011070516h45m44.png
 
http://img148.imageshack.us/img148/9463/vlcsnap2011070516h46m30.png
 
http://img268.imageshack.us/img268/9948/vlcsnap2011070516h47m23.png

:tongue:[/center]